<?xml version="1.0" encoding="UTF-8"?>
<svg width="1600" height="640" viewBox="0 0 1600 640" fill="none" xmlns="http://www.w3.org/2000/svg" role="img" aria-label="360 Logistic hero background">
  <defs>
    <linearGradient id="bg" x1="0" y1="0" x2="1" y2="1">
      <stop offset="0%" stop-color="#F0FDFA"/>
      <stop offset="40%" stop-color="#ECFEFF"/>
      <stop offset="100%" stop-color="#F0FDF4"/>
    </linearGradient>
    <linearGradient id="flow" x1="0" y1="0" x2="1" y2="0">
      <stop offset="0%" stop-color="#22D3EE"/>
      <stop offset="50%" stop-color="#0EA5E9"/>
      <stop offset="100%" stop-color="#22C55E"/>
    </linearGradient>
    <radialGradient id="glow" cx="80%" cy="20%" r="60%">
      <stop offset="0%" stop-color="#22D3EE" stop-opacity="0.35"/>
      <stop offset="100%" stop-color="#22D3EE" stop-opacity="0"/>
    </radialGradient>
  </defs>

  <rect width="1600" height="640" fill="url(#bg)"/>
  <rect width="1600" height="640" fill="url(#glow)"/>

  <!-- fluid waves -->
  <path d="M0,420 C300,360 420,520 720,480 C1000,440 1180,520 1600,460 L1600,640 L0,640 Z" fill="url(#flow)" opacity="0.18"/>
  <path d="M0,460 C320,410 460,560 760,520 C1040,480 1240,560 1600,500 L1600,640 L0,640 Z" fill="url(#flow)" opacity="0.22"/>
  <path d="M0,500 C340,460 520,610 800,560 C1100,510 1320,600 1600,540 L1600,640 L0,640 Z" fill="url(#flow)" opacity="0.28"/>

  <!-- floating shapes -->
  <circle cx="1400" cy="120" r="110" fill="#E0F2FE" />
  <circle cx="200" cy="540" r="90" fill="#DCFCE7" />
  <circle cx="1280" cy="520" r="60" fill="#E0F2FE" />

  <!-- emblem watermark -->
  <g transform="translate(1220,60)">
    <circle cx="60" cy="60" r="60" fill="url(#flow)" opacity=".12"/>
    <text x="60" y="69" text-anchor="middle" font-family="Inter, system-ui, -apple-system, Segoe UI, Roboto" font-size="28" font-weight="800" fill="#0F172A" opacity=".2">360</text>
  </g>
</svg>



